<?xml version="1.0" encoding="UTF-8" standalone="no"?>
<!-- Created with Inkscape (http://www.inkscape.org/) -->

<svg
   xmlns:dc="http://purl.org/dc/elements/1.1/"
   xmlns:cc="http://creativecommons.org/ns#"
   xmlns:rdf="http://www.w3.org/1999/02/22-rdf-syntax-ns#"
   xmlns:svg="http://www.w3.org/2000/svg"
   xmlns="http://www.w3.org/2000/svg"
   xmlns:sodipodi="http://sodipodi.sourceforge.net/DTD/sodipodi-0.dtd"
   xmlns:inkscape="http://www.inkscape.org/namespaces/inkscape"
   width="256"
   height="256"
   viewBox="0 0 67.733332 67.733335"
   version="1.1"
   id="svg8"
   inkscape:version="0.92.5 (2060ec1f9f, 2020-04-08)"
   sodipodi:docname="icon.svg"
   inkscape:export-filename="/home/andrew/Programming/Ace-of-Shades-2/Launcher/icon.png"
   inkscape:export-xdpi="96"
   inkscape:export-ydpi="96">
  <defs
     id="defs2" />
  <sodipodi:namedview
     id="base"
     pagecolor="#ffffff"
     bordercolor="#666666"
     borderopacity="1.0"
     inkscape:pageopacity="0.0"
     inkscape:pageshadow="2"
     inkscape:zoom="2.8"
     inkscape:cx="121.61496"
     inkscape:cy="119.76611"
     inkscape:document-units="px"
     inkscape:current-layer="layer1"
     showgrid="false"
     units="px"
     inkscape:window-width="1920"
     inkscape:window-height="1009"
     inkscape:window-x="0"
     inkscape:window-y="0"
     inkscape:window-maximized="1" />
  <metadata
     id="metadata5">
    <rdf:RDF>
      <cc:Work
         rdf:about="">
        <dc:format>image/svg+xml</dc:format>
        <dc:type
           rdf:resource="http://purl.org/dc/dcmitype/StillImage" />
        <dc:title></dc:title>
      </cc:Work>
    </rdf:RDF>
  </metadata>
  <g
     inkscape:label="Layer 1"
     inkscape:groupmode="layer"
     id="layer1"
     transform="translate(0,-229.26666)">
    <g
       id="g1009"
       transform="translate(-0.11071909,-3.2499995e-6)">
      <path
         sodipodi:nodetypes="cccc"
         inkscape:connector-curvature="0"
         id="path817"
         d="m 55.49147,236.84398 11.688577,26.69851 -27.962981,-10.5742 z"
         style="fill:#1615ff;fill-opacity:1;stroke:none;stroke-width:0.26458332px;stroke-linecap:butt;stroke-linejoin:miter;stroke-opacity:1" />
      <path
         sodipodi:nodetypes="cc"
         inkscape:connector-curvature="0"
         id="path815"
         d="M 55.49147,236.84398 2.9127701,289.42268"
         style="fill:none;stroke:#593000;stroke-width:4.23333311;stroke-linecap:round;stroke-linejoin:miter;stroke-miterlimit:4;stroke-dasharray:none;stroke-opacity:1" />
    </g>
    <g
       id="g1013"
       transform="translate(0.29970847,-3.2499996e-6)">
      <path
         style="fill:#ff151c;fill-opacity:1;stroke:none;stroke-width:0.26458332px;stroke-linecap:butt;stroke-linejoin:miter;stroke-opacity:1"
         d="M 12.052874,236.84398 0.36429715,263.54249 28.327279,252.96829 Z"
         id="path991"
         inkscape:connector-curvature="0"
         sodipodi:nodetypes="cccc" />
      <path
         style="fill:none;stroke:#593000;stroke-width:4.23333311;stroke-linecap:round;stroke-linejoin:miter;stroke-miterlimit:4;stroke-dasharray:none;stroke-opacity:1"
         d="m 12.052874,236.84398 52.5787,52.5787"
         id="path993"
         inkscape:connector-curvature="0"
         sodipodi:nodetypes="cc" />
    </g>
    <g
       id="g989"
       transform="matrix(0.82661493,0,0,0.82661493,60.649135,287.36204)"
       style="stroke:#fffefc;stroke-opacity:1;fill:#062e00;fill-opacity:1;stroke-width:1.28032207;stroke-miterlimit:4;stroke-dasharray:none">
      <g
         id="g933"
         transform="translate(-52.739999,-49.649765)"
         style="stroke:#fffefc;stroke-opacity:1;fill:#062e00;fill-opacity:1;stroke-width:1.28032207;stroke-miterlimit:4;stroke-dasharray:none">
	<path
   id="path931"
   d="m 34.592,20.101 c 1.006,1.808 2.146,3.854 1.892,7.08 -0.298,3.947 -2.771,6.509 -6.785,7.023 -1.688,0.223 -3.075,0.096 -4.066,-0.394 -0.666,-0.326 -1.243,-0.768 -1.76,-1.26 0.55,2.049 1.516,3.729 2.46,5.371 0.224,0.391 0.445,0.775 0.66,1.163 0.167,0.303 0.167,0.67 -0.002,0.972 -0.169,0.303 -0.48,0.496 -0.826,0.512 -1.631,0.076 -3.376,0.11 -5.496,0.11 -1.595,0 -3.21,-0.021 -4.851,-0.04 l -1.082,-0.013 c -0.32,-0.005 -0.618,-0.16 -0.804,-0.421 -0.185,-0.262 -0.234,-0.594 -0.133,-0.897 0.175,-0.521 0.456,-0.964 0.703,-1.354 0.081,-0.128 0.162,-0.255 0.238,-0.384 l 0.14,-0.254 c 0.23,-0.41 0.46,-0.822 0.671,-1.271 l 0.216,-0.474 c 0.428,-0.928 0.87,-1.888 1.12,-2.897 0.01,-0.042 0.02,-0.083 0.03,-0.125 -0.935,0.938 -2.134,1.735 -3.778,1.819 -2.358,0.1 -4.16,-0.604 -4.813,-0.896 C 5.816,32.318 4.424,30.08 4.181,26.818 4.083,25.471 4.326,23.914 4.847,22.54 5.552,20.654 6.82,18.682 7.939,16.938 8.508,16.069 9.127,15.241 9.724,14.44 c 0.309,-0.408 2.857,-3.774 3.25,-4.259 1.899,-2.346 3.56,-5.104 5.166,-7.774 0.389,-0.646 0.776,-1.291 1.168,-1.93 C 19.488,0.182 19.811,0 20.158,0 c 0,0 0,0 10e-4,0 0.348,0 0.67,0.181 0.852,0.477 0.838,1.364 1.722,2.698 2.656,4.11 l 1.039,1.574 c 1.256,1.929 2.707,3.8 4.108,5.608 1.983,2.56 4.034,5.204 5.689,8.177 z"
   inkscape:connector-curvature="0"
   style="stroke:#fffefc;stroke-opacity:1;fill:#062e00;fill-opacity:1;stroke-width:1.28032207;stroke-miterlimit:4;stroke-dasharray:none" />

</g>
      <g
         id="g935"
         style="stroke:#fffefc;stroke-opacity:1;fill:#062e00;fill-opacity:1;stroke-width:1.28032207;stroke-miterlimit:4;stroke-dasharray:none">
</g>
      <g
         id="g937"
         style="stroke:#fffefc;stroke-opacity:1;fill:#062e00;fill-opacity:1;stroke-width:1.28032207;stroke-miterlimit:4;stroke-dasharray:none">
</g>
      <g
         id="g939"
         style="stroke:#fffefc;stroke-opacity:1;fill:#062e00;fill-opacity:1;stroke-width:1.28032207;stroke-miterlimit:4;stroke-dasharray:none">
</g>
      <g
         id="g941"
         style="stroke:#fffefc;stroke-opacity:1;fill:#062e00;fill-opacity:1;stroke-width:1.28032207;stroke-miterlimit:4;stroke-dasharray:none">
</g>
      <g
         id="g943"
         style="stroke:#fffefc;stroke-opacity:1;fill:#062e00;fill-opacity:1;stroke-width:1.28032207;stroke-miterlimit:4;stroke-dasharray:none">
</g>
      <g
         id="g945"
         style="stroke:#fffefc;stroke-opacity:1;fill:#062e00;fill-opacity:1;stroke-width:1.28032207;stroke-miterlimit:4;stroke-dasharray:none">
</g>
      <g
         id="g947"
         style="stroke:#fffefc;stroke-opacity:1;fill:#062e00;fill-opacity:1;stroke-width:1.28032207;stroke-miterlimit:4;stroke-dasharray:none">
</g>
      <g
         id="g949"
         style="stroke:#fffefc;stroke-opacity:1;fill:#062e00;fill-opacity:1;stroke-width:1.28032207;stroke-miterlimit:4;stroke-dasharray:none">
</g>
      <g
         id="g951"
         style="stroke:#fffefc;stroke-opacity:1;fill:#062e00;fill-opacity:1;stroke-width:1.28032207;stroke-miterlimit:4;stroke-dasharray:none">
</g>
      <g
         id="g953"
         style="stroke:#fffefc;stroke-opacity:1;fill:#062e00;fill-opacity:1;stroke-width:1.28032207;stroke-miterlimit:4;stroke-dasharray:none">
</g>
      <g
         id="g955"
         style="stroke:#fffefc;stroke-opacity:1;fill:#062e00;fill-opacity:1;stroke-width:1.28032207;stroke-miterlimit:4;stroke-dasharray:none">
</g>
      <g
         id="g957"
         style="stroke:#fffefc;stroke-opacity:1;fill:#062e00;fill-opacity:1;stroke-width:1.28032207;stroke-miterlimit:4;stroke-dasharray:none">
</g>
      <g
         id="g959"
         style="stroke:#fffefc;stroke-opacity:1;fill:#062e00;fill-opacity:1;stroke-width:1.28032207;stroke-miterlimit:4;stroke-dasharray:none">
</g>
      <g
         id="g961"
         style="stroke:#fffefc;stroke-opacity:1;fill:#062e00;fill-opacity:1;stroke-width:1.28032207;stroke-miterlimit:4;stroke-dasharray:none">
</g>
      <g
         id="g963"
         style="stroke:#fffefc;stroke-opacity:1;fill:#062e00;fill-opacity:1;stroke-width:1.28032207;stroke-miterlimit:4;stroke-dasharray:none">
</g>
    </g>
  </g>
</svg>
